<svg width="97" height="94" viewBox="0 0 97 94" fill="none" xmlns="http://www.w3.org/2000/svg">
<g id="Assignment" clip-path="url(#clip0_87_94)">
<path id="Vector" d="M76.4836 10H59.7636C58.0836 5.36 53.6836 2 48.4836 2C43.2836 2 38.8836 5.36 37.2036 10H20.4836C16.0836 10 12.4836 13.6 12.4836 18V74C12.4836 78.4 16.0836 82 20.4836 82H76.4836C80.8836 82 84.4836 78.4 84.4836 74V18C84.4836 13.6 80.8836 10 76.4836 10ZM48.4836 10C50.6836 10 52.4836 11.8 52.4836 14C52.4836 16.2 50.6836 18 48.4836 18C46.2836 18 44.4836 16.2 44.4836 14C44.4836 11.8 46.2836 10 48.4836 10ZM56.4836 66H28.4836V58H56.4836V66ZM68.4836 50H28.4836V42H68.4836V50ZM68.4836 34H28.4836V26H68.4836V34Z" fill="white"/>
</g>
<defs>
<clipPath id="clip0_87_94">
<rect width="96" height="96" fill="white" transform="translate(0.483643 -2)"/>
</clipPath>
</defs>
</svg>
