<svg width="76" height="74" viewBox="0 0 76 74" fill="none" xmlns="http://www.w3.org/2000/svg">
<path d="M55.8352 27.3021L40.8413 1.95614C40.1909 0.874295 39.0955 0.333374 38 0.333374C36.9046 0.333374 35.8091 0.874295 35.1587 1.99477L20.1649 27.3021H3.76749C1.8847 27.3021 0.344238 29.0408 0.344238 31.1658C0.344238 31.5136 0.378471 31.8613 0.481168 32.209L9.17623 68.0257C9.96358 71.2712 12.5995 73.6667 15.7489 73.6667H60.2512C63.4005 73.6667 66.0364 71.2712 66.858 68.0257L75.5531 32.209L75.6558 31.1658C75.6558 29.0408 74.1153 27.3021 72.2325 27.3021H55.8352ZM27.7303 27.3021L38 10.3018L48.2698 27.3021H27.7303ZM38 58.2118C34.2344 58.2118 31.1535 54.7345 31.1535 50.4844C31.1535 46.2343 34.2344 42.757 38 42.757C41.7656 42.757 44.8465 46.2343 44.8465 50.4844C44.8465 54.7345 41.7656 58.2118 38 58.2118Z" fill="#849ED1"/>
</svg>
