<svg width="96" height="96" viewBox="0 0 96 96" fill="none" xmlns="http://www.w3.org/2000/svg">
<g clip-path="url(#clip0_90_26)">
<path d="M48 60.8C55.0692 60.8 60.7999 55.0693 60.7999 48C60.7999 40.9308 55.0692 35.2 48 35.2C40.9307 35.2 35.2 40.9308 35.2 48C35.2 55.0693 40.9307 60.8 48 60.8Z" fill="white"/>
<path d="M36 8L28.68 16H16C11.6 16 8 19.6 8 24V72C8 76.4 11.6 80 16 80H80C84.4 80 88 76.4 88 72V24C88 19.6 84.4 16 80 16H67.32L60 8H36ZM48 68C36.96 68 28 59.04 28 48C28 36.96 36.96 28 48 28C59.04 28 68 36.96 68 48C68 59.04 59.04 68 48 68Z" fill="white"/>
</g>
<defs>
<clipPath id="clip0_90_26">
<rect width="96" height="96" fill="white"/>
</clipPath>
</defs>
</svg>
