<svg width="51" height="48" viewBox="0 0 51 48" fill="none" xmlns="http://www.w3.org/2000/svg">
<path d="M38.0878 0C28.8114 0 25.4031 9.63273 25.4031 9.63273C25.4031 9.63273 22.0415 0 12.6973 0C5.67762 0 -2.32436 5.65568 0.630864 18.5122C3.58609 31.3688 25.4243 47.3846 25.4243 47.3846C25.4243 47.3846 47.1821 31.3688 50.1415 18.5122C53.0968 5.65568 45.6706 0 38.0878 0Z" fill="white"/>
<path d="M11.2665 0.95983C18.5487 0.95983 22.1644 8.91824 23.3329 12.1421C23.498 12.6026 24.1289 12.6155 24.3194 12.1679L25.3863 9.63704C23.8833 4.7518 19.7511 0 12.6975 0C9.77613 0 6.68966 0.981351 4.28906 3.05166C6.41022 1.63558 8.89549 0.95983 11.2665 0.95983Z" fill="white"/>
<path d="M38.0878 0C35.8481 0 33.9513 0.662842 32.3594 1.65711C33.4771 1.21808 34.7134 0.95983 36.0852 0.95983C42.9482 0.95983 49.0916 6.24966 46.3184 18.4778C43.939 28.9757 30.035 41.7117 25.7884 46.5711C25.5175 46.881 25.4243 47.3803 25.4243 47.3803C25.4243 47.3803 47.1821 31.3645 50.1415 18.5079C53.0968 5.65568 45.1033 0 38.0878 0Z" fill="white"/>
<path d="M5.50415 6.82209C7.09184 4.80774 9.92852 3.14203 12.3333 5.06169C13.6331 6.09899 13.0658 8.22525 11.9015 9.12052C10.208 10.429 8.73457 11.2167 7.70151 13.2654C7.08337 14.4964 6.71079 15.8436 6.52027 17.2167C6.44406 17.759 5.74548 17.8924 5.48298 17.4147C3.69629 14.1951 3.18823 9.76184 5.50415 6.82209Z" fill="white"/>
<path d="M30.9621 11.0574C30.217 11.0574 29.692 10.3257 29.9629 9.61981C30.4668 8.31995 31.1188 7.06313 31.9021 5.94405C33.0621 4.29125 35.268 3.32711 36.6651 4.32999C38.0962 5.35438 37.9099 7.40316 36.9065 8.39312C34.7472 10.5151 32.0333 11.0574 30.9621 11.0574Z" fill="white"/>
</svg>
